<mxfile host="app.diagrams.net" agent="Mozilla/5.0 (Windows NT 10.0; Win64; x64) AppleWebKit/537.36 (KHTML, like Gecko) Chrome/133.0.0.0 Safari/537.36" version="26.0.7">
  <diagram name="PÃ¡gina-1" id="5aSeLqCqKGbc1p5p2SOj">
    <mxGraphModel dx="1434" dy="744" grid="1" gridSize="10" guides="1" tooltips="1" connect="1" arrows="1" fold="1" page="1" pageScale="1" pageWidth="827" pageHeight="1169" math="0" shadow="0">
      <root>
        <mxCell id="0" />
        <mxCell id="1" parent="0" />
        <mxCell id="4FF08Fl1d_PFnHCe5_ZT-1" value="" style="image;aspect=fixed;perimeter=ellipsePerimeter;html=1;align=center;shadow=0;dashed=0;spacingTop=3;image=img/lib/active_directory/windows_server_2.svg;" vertex="1" parent="1">
          <mxGeometry x="510" y="310" width="100" height="125" as="geometry" />
        </mxCell>
        <mxCell id="4FF08Fl1d_PFnHCe5_ZT-2" value="" style="html=1;verticalLabelPosition=bottom;align=center;labelBackgroundColor=#ffffff;verticalAlign=top;strokeWidth=2;strokeColor=#0080F0;shadow=0;dashed=0;shape=mxgraph.ios7.icons.box;" vertex="1" parent="1">
          <mxGeometry x="649.4000000000001" y="290" width="30" height="30" as="geometry" />
        </mxCell>
        <mxCell id="4FF08Fl1d_PFnHCe5_ZT-3" value="" style="points=[];aspect=fixed;html=1;align=center;shadow=0;dashed=0;fillColor=#FF6A00;strokeColor=none;shape=mxgraph.alibaba_cloud.dbfs_database_file_system;" vertex="1" parent="1">
          <mxGeometry x="640.7" y="400" width="47.400000000000006" height="48" as="geometry" />
        </mxCell>
        <mxCell id="4FF08Fl1d_PFnHCe5_ZT-11" style="edgeStyle=orthogonalEdgeStyle;rounded=0;orthogonalLoop=1;jettySize=auto;html=1;entryX=0;entryY=0.25;entryDx=0;entryDy=0;" edge="1" parent="1" source="4FF08Fl1d_PFnHCe5_ZT-4" target="4FF08Fl1d_PFnHCe5_ZT-1">
          <mxGeometry relative="1" as="geometry" />
        </mxCell>
        <mxCell id="4FF08Fl1d_PFnHCe5_ZT-4" value="" style="image;points=[];aspect=fixed;html=1;align=center;shadow=0;dashed=0;image=img/lib/allied_telesis/computer_and_terminals/Personal_Computer.svg;" vertex="1" parent="1">
          <mxGeometry x="50" y="160" width="45.6" height="61.800000000000004" as="geometry" />
        </mxCell>
        <mxCell id="4FF08Fl1d_PFnHCe5_ZT-12" style="edgeStyle=orthogonalEdgeStyle;rounded=0;orthogonalLoop=1;jettySize=auto;html=1;" edge="1" parent="1" source="4FF08Fl1d_PFnHCe5_ZT-5" target="4FF08Fl1d_PFnHCe5_ZT-1">
          <mxGeometry relative="1" as="geometry" />
        </mxCell>
        <mxCell id="4FF08Fl1d_PFnHCe5_ZT-5" value="" style="image;points=[];aspect=fixed;html=1;align=center;shadow=0;dashed=0;image=img/lib/allied_telesis/computer_and_terminals/Personal_Computer.svg;" vertex="1" parent="1">
          <mxGeometry x="50" y="294.1" width="45.6" height="61.800000000000004" as="geometry" />
        </mxCell>
        <mxCell id="4FF08Fl1d_PFnHCe5_ZT-6" value="" style="image;points=[];aspect=fixed;html=1;align=center;shadow=0;dashed=0;image=img/lib/allied_telesis/computer_and_terminals/Personal_Computer.svg;" vertex="1" parent="1">
          <mxGeometry x="40" y="420" width="45.6" height="61.800000000000004" as="geometry" />
        </mxCell>
        <mxCell id="4FF08Fl1d_PFnHCe5_ZT-7" value="" style="image;points=[];aspect=fixed;html=1;align=center;shadow=0;dashed=0;image=img/lib/allied_telesis/computer_and_terminals/Personal_Computer.svg;" vertex="1" parent="1">
          <mxGeometry x="85.6" y="560" width="45.6" height="61.800000000000004" as="geometry" />
        </mxCell>
        <mxCell id="4FF08Fl1d_PFnHCe5_ZT-15" style="edgeStyle=orthogonalEdgeStyle;rounded=0;orthogonalLoop=1;jettySize=auto;html=1;entryX=0.5;entryY=1;entryDx=0;entryDy=0;" edge="1" parent="1" source="4FF08Fl1d_PFnHCe5_ZT-8" target="4FF08Fl1d_PFnHCe5_ZT-1">
          <mxGeometry relative="1" as="geometry" />
        </mxCell>
        <mxCell id="4FF08Fl1d_PFnHCe5_ZT-8" value="" style="image;points=[];aspect=fixed;html=1;align=center;shadow=0;dashed=0;image=img/lib/allied_telesis/computer_and_terminals/Personal_Computer.svg;" vertex="1" parent="1">
          <mxGeometry x="180" y="650" width="45.6" height="61.800000000000004" as="geometry" />
        </mxCell>
        <mxCell id="4FF08Fl1d_PFnHCe5_ZT-10" style="edgeStyle=orthogonalEdgeStyle;rounded=0;orthogonalLoop=1;jettySize=auto;html=1;" edge="1" parent="1" source="4FF08Fl1d_PFnHCe5_ZT-9" target="4FF08Fl1d_PFnHCe5_ZT-1">
          <mxGeometry relative="1" as="geometry" />
        </mxCell>
        <mxCell id="4FF08Fl1d_PFnHCe5_ZT-9" value="" style="image;points=[];aspect=fixed;html=1;align=center;shadow=0;dashed=0;image=img/lib/allied_telesis/computer_and_terminals/Personal_Computer.svg;" vertex="1" parent="1">
          <mxGeometry x="150" y="80" width="45.6" height="61.800000000000004" as="geometry" />
        </mxCell>
        <mxCell id="4FF08Fl1d_PFnHCe5_ZT-13" style="edgeStyle=orthogonalEdgeStyle;rounded=0;orthogonalLoop=1;jettySize=auto;html=1;entryX=0.02;entryY=0.64;entryDx=0;entryDy=0;entryPerimeter=0;" edge="1" parent="1" source="4FF08Fl1d_PFnHCe5_ZT-6" target="4FF08Fl1d_PFnHCe5_ZT-1">
          <mxGeometry relative="1" as="geometry" />
        </mxCell>
        <mxCell id="4FF08Fl1d_PFnHCe5_ZT-14" style="edgeStyle=orthogonalEdgeStyle;rounded=0;orthogonalLoop=1;jettySize=auto;html=1;entryX=0.12;entryY=0.992;entryDx=0;entryDy=0;entryPerimeter=0;" edge="1" parent="1" source="4FF08Fl1d_PFnHCe5_ZT-7" target="4FF08Fl1d_PFnHCe5_ZT-1">
          <mxGeometry relative="1" as="geometry" />
        </mxCell>
        <mxCell id="4FF08Fl1d_PFnHCe5_ZT-16" style="edgeStyle=orthogonalEdgeStyle;rounded=0;orthogonalLoop=1;jettySize=auto;html=1;entryX=0.053;entryY=0.933;entryDx=0;entryDy=0;entryPerimeter=0;" edge="1" parent="1" source="4FF08Fl1d_PFnHCe5_ZT-1" target="4FF08Fl1d_PFnHCe5_ZT-2">
          <mxGeometry relative="1" as="geometry" />
        </mxCell>
        <mxCell id="4FF08Fl1d_PFnHCe5_ZT-17" style="edgeStyle=orthogonalEdgeStyle;rounded=0;orthogonalLoop=1;jettySize=auto;html=1;entryX=0.323;entryY=0.521;entryDx=0;entryDy=0;entryPerimeter=0;" edge="1" parent="1" source="4FF08Fl1d_PFnHCe5_ZT-1" target="4FF08Fl1d_PFnHCe5_ZT-3">
          <mxGeometry relative="1" as="geometry" />
        </mxCell>
        <mxCell id="4FF08Fl1d_PFnHCe5_ZT-18" value="Sistema" style="text;html=1;align=center;verticalAlign=middle;whiteSpace=wrap;rounded=0;fontSize=17;" vertex="1" parent="1">
          <mxGeometry x="640.7" y="470" width="69.3" height="40" as="geometry" />
        </mxCell>
        <mxCell id="4FF08Fl1d_PFnHCe5_ZT-19" value="Arquivo" style="text;html=1;align=center;verticalAlign=middle;whiteSpace=wrap;rounded=0;fontSize=17;" vertex="1" parent="1">
          <mxGeometry x="640.7" y="240" width="69.3" height="40" as="geometry" />
        </mxCell>
        <mxCell id="4FF08Fl1d_PFnHCe5_ZT-20" value="TS" style="text;html=1;align=center;verticalAlign=middle;whiteSpace=wrap;rounded=0;fontSize=17;" vertex="1" parent="1">
          <mxGeometry x="440.70000000000005" y="408" width="69.3" height="40" as="geometry" />
        </mxCell>
      </root>
    </mxGraphModel>
  </diagram>
</mxfile>
